<svg data-v-0dd9719b="" version="1.0" xmlns="http://www.w3.org/2000/svg" xmlns:xlink="http://www.w3.org/1999/xlink" width="100%" height="100%" viewBox="0 0 340.000000 250.000000" preserveAspectRatio="xMidYMid meet" color-interpolation-filters="sRGB" style="margin: auto;"> <rect data-v-0dd9719b="" x="0" y="0" width="100%" height="100%" fill="#fff" fill-opacity="1" class="background"></rect> <rect data-v-0dd9719b="" x="0" y="0" width="100%" height="100%" fill="url(#watermark)" fill-opacity="1" class="watermarklayer"></rect> <g data-v-0dd9719b="" fill="#333" class="icon-text-wrapper icon-svg-group iconsvg" transform="translate(46.7449951171875,96.76789283752441)"><g class="iconsvg-imagesvg" transform="translate(0,0)"><g><rect fill="#333" fill-opacity="0" stroke-width="2" x="0" y="0" width="60" height="56.464211100863906" class="image-rect"></rect> <svg x="0" y="0" width="60" height="56.464211100863906" filtersec="colorsb5962954908" class="image-svg-svg primary" style="overflow: visible;"><svg xmlns="http://www.w3.org/2000/svg" viewBox="0.28515467047691345 0.27830439805984497 105.97604370117188 99.73069763183594"><path d="M91.2 16a53.15 53.15 0 0 1-1 75.14l-4.65-4.78A46.43 46.43 0 1 0 6.68 52.57a46.06 46.06 0 0 0 13.17 33l-4.78 4.67A53.17 53.17 0 0 1 91.2 16z" fill="#2b3990"></path><path d="M25.37 24.66A39.76 39.76 0 1 1 80.89 81.6l-4.65-4.78a33.09 33.09 0 1 0-46.83-.56l-4.78 4.66a39.79 39.79 0 0 1 .74-56.26z" fill="#2b3990"></path><path d="M34.68 34.21a26.43 26.43 0 1 1 36.9 37.84l-4.66-4.78A19.74 19.74 0 1 0 39 66.94l-4.81 4.66a26.44 26.44 0 0 1 .49-37.39z" fill="#2b3990"></path><path d="M44 43.76A13.09 13.09 0 1 1 62.27 62.5l-4.66-4.77a6.42 6.42 0 1 0-9.08-.11l-4.78 4.66A13.1 13.1 0 0 1 44 43.76z" fill="#2b3990"></path><path fill="#00aeef" d="M56.678 94.65l4.868-4.748 4.741 4.862-4.868 4.747zM38.09 94.553l4.868-4.747 4.74 4.86-4.868 4.748zM57.034 76.076l4.868-4.747 4.748 4.868-4.869 4.748zM66.147 85.413l4.868-4.748 4.74 4.862-4.868 4.747zM75.613 95.14l4.868-4.747 4.748 4.868-4.868 4.748zM48.142 66.954l4.868-4.748 4.74 4.861-4.868 4.748zM38.673 76.19l4.868-4.747 4.741 4.861-4.868 4.748zM52.44 80.57v-.01l-4.88 4.75.01.01 4.74 4.87 4.88-4.75-4.75-4.87zM29.207 85.43l4.869-4.747 4.74 4.861-4.868 4.748zM19.246 95.136l4.868-4.748 4.74 4.862-4.868 4.747z"></path></svg></svg> <!----></g></g> <g transform="translate(67,11.357107162475586)"><g data-gra="path-name" fill-rule="" class="tp-name iconsvg-namesvg"><g transform="scale(1)"><g><path d="M3.98 0.04L7.08-9.33 20.79-9.33 24.06 0.04 28.3 0.04 15.88-30.91 11.32-30.91-0.44 0.04 3.98 0.04ZM13.89-27.11L19.59-12.65 8.18-12.65 13.89-27.11ZM35.96 0.09Q36.31 0.09 36.46-0.07 36.62-0.22 36.62-0.57L36.62-0.57 36.62-20.87 40.6-20.87Q40.95-20.87 41.11-21.03 41.26-21.18 41.26-21.54L41.26-21.54 41.26-24.46 36.57-24.46Q36.62-27.42 36.75-28.3 36.88-29.19 37.55-29.57 38.21-29.94 40.07-29.9L40.07-29.9 41.97-29.85 41.97-33.52Q41.35-33.57 40.11-33.57L40.11-33.57Q37.42-33.57 35.54-32.86 33.66-32.15 32.99-30.25L32.99-30.25Q32.73-29.5 32.64-28.61 32.55-27.73 32.55-26.49L32.55-26.49 32.55-24.46 27.6-24.46 27.6-20.87 32.55-20.87 32.55 0.09 35.96 0.09ZM51.92-3.76Q50.46-3.54 49.67-3.54L49.67-3.54Q48.47-3.54 47.96-4.27 47.45-5 47.45-7.03L47.45-7.03 47.45-21.49 50.68-21.49Q51.04-21.49 51.19-21.65 51.35-21.8 51.35-22.16L51.35-22.16 51.35-24.68 47.45-24.68 47.45-29.41 43.52-29.41 43.52-24.68 40.64-24.68 40.64-21.49 43.52-21.49 43.52-7.25Q43.52-3.41 44.76-1.55 46 0.31 49.09 0.09L49.09 0.09Q50.33 0 51.92-1.15L51.92-1.15 51.92-3.76ZM72.75-8.27Q71.29-5.66 69.55-4.78 67.8-3.89 65.99-3.89L65.99-3.89Q64.13-3.89 62.49-4.78 60.86-5.66 59.84-7.34 58.82-9.02 58.82-11.28L58.82-11.28 76.69-11.28Q76.73-11.76 76.73-12.38L76.73-12.38Q76.73-16.32 75.18-19.13 73.64-21.94 71.14-23.35 68.64-24.77 65.81-24.77L65.81-24.77Q62.93-24.77 60.37-23.31 57.8-21.85 56.21-19 54.62-16.14 54.62-12.16L54.62-12.16Q54.62-8.36 56.26-5.59 57.89-2.83 60.55-1.42 63.2 0 66.16 0L66.16 0Q69.57 0 72.38-1.9 75.18-3.8 76.38-7.39L76.38-7.39 72.75-8.27ZM59.04-14.59Q59.17-16.72 60.17-18.27 61.16-19.81 62.69-20.63 64.22-21.45 65.85-21.45L65.85-21.45Q68.37-21.45 70.25-19.68 72.13-17.91 72.4-14.59L72.4-14.59 59.04-14.59ZM85.44 0.18Q85.8 0.18 85.95 0.02 86.11-0.13 86.11-0.49L86.11-0.49 86.11-12.52Q86.11-16.01 87.39-18.18 88.67-20.34 91.06-21.1L91.06-21.1Q92.57-21.58 94.73-20.61L94.73-20.61 95.09-23.35Q92.92-24.68 91.11-24.68L91.11-24.68Q89.47-24.68 88.16-23.62 86.86-22.56 85.71-20.39L85.71-20.39 85.71-24.81 82.04-24.81 82.04 0.18 85.44 0.18ZM101.06 0Q101.41 0 101.57-0.15 101.72-0.31 101.72-0.66L101.72-0.66 101.72-12.6Q101.72-15.48 102.54-17.49 103.36-19.5 104.62-20.5 105.88-21.49 107.29-21.49L107.29-21.49Q109.11-21.49 110.39-19.95 111.67-18.4 111.67-15.79L111.67-15.79 111.67 0 114.99 0Q115.34 0 115.5-0.15 115.65-0.31 115.65-0.66L115.65-0.66 115.65-14.11Q115.65-16.41 116.43-18.11 117.2-19.81 118.46-20.68 119.72-21.54 121.09-21.54L121.09-21.54Q122.95-21.54 124.28-19.9 125.6-18.27 125.6-15.3L125.6-15.3 125.6 0 128.92 0Q129.27 0 129.43-0.15 129.58-0.31 129.58-0.66L129.58-0.66 129.58-16.67Q129.58-19.37 128.63-21.23 127.68-23.09 126.07-24.01 124.45-24.94 122.55-24.94L122.55-24.94Q120.47-24.94 118.44-23.79 116.4-22.64 115.03-20.57L115.03-20.57Q114.28-22.69 112.58-23.77 110.87-24.86 108.71-24.86L108.71-24.86Q106.54-24.86 104.51-23.79 102.47-22.73 101.32-20.87L101.32-20.87 101.32-24.81 97.74-24.81 97.74 0 101.06 0ZM139.22-26.36Q139.49-26.36 139.69-26.56 139.89-26.76 139.89-27.02L139.89-27.02 139.89-31 135.82-31 135.82-26.36 139.22-26.36ZM139.22 0Q139.49 0 139.69-0.2 139.89-0.4 139.89-0.66L139.89-0.66 139.89-24.28 135.82-24.28 135.82 0 139.22 0ZM148.6 0Q148.95 0 149.11-0.15 149.26-0.31 149.26-0.66L149.26-0.66 149.26-13.18Q149.26-15.83 150.13-17.69 150.99-19.55 152.36-20.48 153.73-21.41 155.23-21.41L155.23-21.41Q156.65-21.41 157.89-20.61 159.13-19.81 159.88-18.29 160.63-16.76 160.63-14.64L160.63-14.64 160.63 0 164.03 0Q164.39 0 164.54-0.15 164.7-0.31 164.7-0.66L164.7-0.66 164.7-14.82Q164.7-18.13 163.57-20.41 162.44-22.69 160.56-23.82 158.68-24.94 156.52-24.94L156.52-24.94Q154.3-24.94 152.27-23.84 150.24-22.73 148.86-20.7L148.86-20.7 148.86-24.77 145.19-24.77 145.19 0 148.6 0ZM179.07-3.76Q177.61-3.54 176.82-3.54L176.82-3.54Q175.62-3.54 175.11-4.27 174.6-5 174.6-7.03L174.6-7.03 174.6-21.49 177.83-21.49Q178.19-21.49 178.34-21.65 178.5-21.8 178.5-22.16L178.5-22.16 178.5-24.68 174.6-24.68 174.6-29.41 170.67-29.41 170.67-24.68 167.79-24.68 167.79-21.49 170.67-21.49 170.67-7.25Q170.67-3.41 171.91-1.55 173.14 0.31 176.24 0.09L176.24 0.09Q177.48 0 179.07-1.15L179.07-1.15 179.07-3.76Z" transform="translate(0.4399999976158142, 33.56999969482422)"></path></g> <!----> <!----> <!----> <!----> <!----> <!----> <!----></g></g> <!----></g></g><defs v-gra="od"></defs></svg>